<?xml version="1.0" encoding="utf-8"?>
<!-- Generator: Adobe Illustrator 19.2.1, SVG Export Plug-In . SVG Version: 6.00 Build 0)  -->
<svg version="1.1" id="layer" xmlns="http://www.w3.org/2000/svg" xmlns:xlink="http://www.w3.org/1999/xlink" x="0px" y="0px"
	 viewBox="0 0 652 652" style="enable-background:new 0 0 652 652;" xml:space="preserve">
<style type="text/css">
	.st0{fill:#0082CA;}
</style>
<path class="st0" d="M463.3,320c18.5,0,32.1-13,33.1-31.7c0.9-16.8-10.9-28.6-28.7-28.6c-19.2,0-33.4,12.7-34.4,30.9
	C432.4,308.2,444.4,320,463.3,320 M450.8,290.1c0.4-8.1,6.9-14,15.3-14c8.2,0,13.3,5.4,12.8,13.7c-0.4,8.2-6.6,13.9-15,13.9
	C455.4,303.6,450.3,298.3,450.8,290.1"/>
<path class="st0" d="M494.7,315.5c-0.2,3.4,2.9,3.4,4.5,3.4h7.7c3.5,0,4.4-0.7,5-4.2l4-22.6c0.3-2.1,0.6-3.8,0.8-5.8
	c1.1,2.7,2.3,5,3.4,7.2l12.3,22.6l0.1,0.3c1.1,2,1.6,2.5,4,2.5h10.5c3.5,0,4.4-0.7,5-4.2l8.6-48.8l0.1-0.7c0.1-0.6,0.1-0.6,0.1-0.9
	c0.2-3.4-2.9-3.4-4.5-3.4h-7.7c-3.5,0-4.4,0.7-5,4.2l-4.4,24.9c-0.2,1.3-0.4,2.5-0.6,3.7l-0.4-1.1c-0.7-1.6-1.5-3.1-2.2-4.4
	l-13.3-24.8c-1.1-2-1.6-2.5-4-2.5h-10.3c-3.5,0-4.4,0.7-5,4.2l-8.6,48.8C494.7,315.1,494.7,315.1,494.7,315.5"/>
<path class="st0" d="M556.8,315.5c-0.2,3.4,2.9,3.4,4.5,3.4h24.5c3.5,0,4.4-0.7,5-4.2l1.1-6.2c0-0.2,0-0.4,0.1-0.7
	c0-0.3,0.1-0.6,0.1-0.8c0.2-3.4-3-3.4-4.4-3.4H576l1-5.9h11.4c3.5,0,4.4-0.7,5-4.2l1.1-6c0.1-0.8,0.2-1.3,0.2-1.7
	c0.2-3.4-3-3.4-4.5-3.4h-10.5l1.2-6.3h11.9c3.4,0,4.3-0.8,4.9-4.2l1.2-6.7c0.1-0.6,0.1-0.6,0.1-0.9c0.2-3.4-2.9-3.4-4.5-3.4h-23.9
	c-3.5,0-4.4,0.7-5,4.2l-8.6,48.8C556.9,315,556.9,315.1,556.8,315.5"/>
<path class="st0" d="M507.8,351.9c0.9-16.8-10.9-28.6-28.7-28.6c-19.3,0-33.4,12.7-34.4,30.9c-0.9,17.6,11.1,29.4,30,29.4
	C493.2,383.6,506.8,370.5,507.8,351.9 M490.3,353.4c-0.4,8.2-6.6,13.9-15,13.9c-8.4,0-13.5-5.3-13.1-13.6c0.4-8.1,6.9-14,15.3-14
	C485.7,339.6,490.7,345,490.3,353.4"/>
<path class="st0" d="M572.3,328.8c0.1-0.6,0.1-0.6,0.1-0.9c0.2-3.4-2.9-3.4-4.4-3.4h-7.7c-3.5,0-4.4,0.7-5,4.2l-4.4,24.9
	c-0.2,1.3-0.4,2.5-0.6,3.7l-0.4-1.1c-0.7-1.6-1.5-3.1-2.2-4.4l-13.3-24.8c-1.1-2-1.6-2.5-4-2.5H520c-3.5,0-4.4,0.7-5,4.2l-8.6,48.8
	c-0.3,1.3-0.3,1.3-0.3,1.7c-0.2,3.4,2.9,3.4,4.5,3.4h7.7c3.5,0,4.4-0.7,5-4.2l4-22.6c0.3-2.1,0.6-3.9,0.8-5.8c1.2,2.7,2.3,5,3.4,7.2
	l12.3,22.6l0.2,0.3c1.1,2,1.6,2.5,4,2.5h10.5c3.5,0,4.4-0.7,5-4.2l8.6-48.8L572.3,328.8z"/>
<path class="st0" d="M599.9,361.3c3.5,0,4.4-0.7,5-4.2l1.1-6c0.1-0.8,0.2-1.3,0.2-1.7c0.2-3.4-3-3.4-4.5-3.4h-10.5l1.2-6.3h11.9
	c3.4,0,4.3-0.7,4.9-4.2l1.2-6.7c0.1-0.6,0.1-0.6,0.1-0.9c0.2-3.4-2.9-3.4-4.5-3.4h-23.9c-3.5,0-4.4,0.7-5,4.2l-8.6,48.7
	c-0.3,1.3-0.3,1.3-0.3,1.7c-0.2,3.4,2.9,3.4,4.4,3.4h24.5c3.5,0,4.4-0.7,5-4.2l1.1-6.2c0-0.2,0.1-0.5,0.1-0.7c0-0.3,0.1-0.6,0.1-0.8
	c0.2-3.4-3-3.4-4.4-3.4h-11.7l1-6H599.9z"/>
<path class="st0" d="M278.9,312.2c-0.1,0-0.3,0-0.4,0c-0.1,0.1-0.5,0.2-1,0.5c-1.6,0.8-4.9,2.5-7.1,3.4c-4.5,1.8-10.3,2.5-12.5,2.8
	c-0.4,0-0.7,0.1-0.8,0.1c-0.9,0.2-4.3,0.5-5.7,0.6c-3.5,0.2-7.6,0.2-11.3,0c-3.9-0.2-7.6-0.4-10.7-0.2l-0.5,0
	c-4.3,0.1-11.8,1.7-13.6,2.2c-2.9,0.8-11,1.5-13.4,1.7c-0.7,0.1-2.1,0.1-4-0.2c-1.8-0.4-3.2-1-3.8-1.4c-2.1-1.1-9.2-5-11.6-6.9
	c-1.5-1.2-7.7-5.6-11.6-7.4l-0.4-0.2c-2.7-1.3-6.2-2.7-9.9-4c-3.4-1.3-7.2-2.9-10.3-4.5c-1.2-0.6-4.2-2.2-5-2.7
	c-0.1-0.1-0.4-0.2-0.7-0.4c-1.9-1.1-7-4.1-10.4-7.5c-1.7-1.7-4.1-4.6-5.2-5.9c-0.4-0.4-0.6-0.7-0.7-0.9c-0.1-0.1-0.2-0.2-0.3-0.2
	c-0.4-0.1-0.9,0.1-1.1,0.3c-0.4,0.3-0.8,0.9-0.6,1.3c0.2,0.4,3.5,5.3,5.9,7.7c2.4,2.4,6,5,8.4,6.6c1.3,0.8,6.7,4.2,6.8,4.2
	c1.4,0.9,2.9,1.9,4.9,3.1c2.4,1.5,5.4,3.3,9.3,5.8l1.2,0.8c8.2,5.3,9.9,6.5,15.7,12.1c2.9,2.7,4.4,4.6,5.4,5.8l0.3,0.3
	c0.3,0.5,0.9,1.2,1.6,2.2c1.3,1.8,3.6,4.8,5.6,7.2c0.9,1,1.4,1.5,3.1,1.8h0c1.6,0.3,2.3,0.1,3.5-0.5c2.8-1.3,6-3.2,8-4.4
	c1-0.6,1.9-1.1,2.4-1.4l0.4-0.2c1.4-0.7,3.5-1.8,7.3-3.2c7.6-2.8,9.6-3.2,19.2-4.8l1.4-0.2c4.6-0.8,8-1.3,10.8-1.6
	c2.3-0.3,4.1-0.6,5.7-0.8c0.1,0,6.4-0.9,7.9-1.2c2.8-0.5,7.2-1.5,10.3-2.7c3.1-1.2,8.1-4.4,8.5-4.7c0.4-0.2,0.2-1,0-1.4
	C279.7,312.6,279.3,312.2,278.9,312.2"/>
<path class="st0" d="M423.9,268.9c-1.1-6.8-2.5-8.1-9.5-8.1H392c-5.3,0-6.9,0.4-9.2,4.5l-0.3,0.5c-0.2,0.3-0.4,0.7-0.7,1.3
	L336,349.2l-16.8-26.4l38.4-48.8c2.3-2.9,3.2-4.2,3.4-6.4c0.1-1.8-0.4-3.4-1.5-4.5c-1.9-2-5-2.3-7.9-2.3l-20.6,0
	c-3.9,0-4.8,0.9-7.2,3.8l-30.3,38.5l5.7-31.9l0.1-0.4c0-0.6,0.1-1.2,0.2-1.7c0.1-0.5,0.1-1,0.2-1.4c0-0.8,0.2-3.1-1.5-4.8
	c-1.7-1.8-4.3-2.1-7.7-2.1h-16.1c-7.2,0-8.8,1.3-10,8.4l-4.4,24.5c-2.4-6.6-6-12.5-10.8-17.6c-10.8-11.4-27.1-17.7-45.9-17.7
	c-25.1,0-46.1,10.3-58.9,27.4l2.6-14.5l0.3-1.6c0.2-1,0.2-1.1,0.3-1.9c0-0.8,0.2-3.1-1.5-4.8c-1.7-1.8-4.3-2.1-7.7-2.1h-16.3
	c-7.2,0-8.8,1.3-10,8.4l-6.1,33.8H69.1l5.7-31.7l0-0.4c0-0.6,0.1-1.2,0.2-1.7c0.1-0.5,0.1-1,0.2-1.4c0-0.8,0.2-3.1-1.5-4.8
	c-1.7-1.8-4.3-2.1-7.7-2.1H49.8c-7.2,0-8.8,1.3-10,8.4L21.4,372c-0.5,2.5-0.5,2.6-0.6,3.5c0,0.8-0.2,3.1,1.5,4.8
	c1.7,1.8,4.3,2.1,7.7,2.1h16.3c7.2,0,8.8-1.3,10-8.4l7.1-39.7H100L93.3,372l-0.2,1.2c-0.3,1.4-0.3,1.5-0.3,2.3
	c0,0.8-0.2,3.1,1.5,4.8c1.7,1.8,4.3,2.1,7.7,2.1h16.3c7.2,0,8.8-1.3,10-8.4l5.2-28.8c2.4,7.9,6.4,15,12.1,21
	c11.3,11.9,28.4,18.5,48.3,18.5c22.5,0,41.6-9.3,54.1-24.8l-2.1,12c-0.5,2.3-0.5,2.6-0.6,3.6c0,0.8-0.2,3.1,1.5,4.8
	c1.7,1.8,4.3,2.1,7.7,2.1h16.3c7.2,0,8.8-1.3,10-8.4l6.7-37.2c1.3,2.5,2.7,5.1,4,7.2l20.4,33.2l0.5,0.8c2.4,3.8,3.5,4.4,8,4.4h11.1
	h10.5h8.1c5.5,0,7.2-0.5,9.4-4.7l0.3-0.6v-0.1c0.2-0.3,0.4-0.6,0.5-1l7.7-14.9h35.9l2.4,13.4c1.3,6.6,2.8,7.8,9.5,7.8h17.7
	c3,0,9.2,0,9.6-6.4c0.1-1.2,0-1.5-0.5-4.4L423.9,268.9z M282.3,317.8c-0.1,0-5.6,3.7-9.4,5.2c-3.5,1.3-8.2,2.4-11.1,2.9
	c-1,0.2-3.9,0.6-6,0.9c-1,0.1-1.7,0.2-1.9,0.3v0l-0.1,0c-1.6,0.3-3.5,0.5-5.8,0.9l-0.3,0c-2.7,0.4-6.1,0.9-10.4,1.6l-1.4,0.2l-0.2,0
	c-5.5,0.9-8.3,1.4-11.2,2.2c-4.7,11.5-15.9,19-29.9,19c-8.8,0-16-2.8-21-8c-4.9-5.1-7.2-12.3-6.7-20.8c0.1-1.2,0.2-2.3,0.4-3.4
	c-1.7-1.2-3.8-2.6-6.9-4.6l-1.1-0.7c-3.6-2.3-6.5-4.1-8.8-5.5l-0.5-0.3c-2-1.2-3.6-2.2-5-3.1l-0.6-0.4c-2.6-1.6-5.3-3.2-6.2-3.9
	c-1.3-0.9-5.9-4-9-7.1c-2.9-2.8-6.6-8.4-6.6-8.5c-1.4-2.2-0.7-5.1,1.6-6.9c1-0.7,2.3-1.2,3.5-1.2c0.3,0,0.7,0,1,0.1
	c1.1,0.2,2,0.7,2.7,1.5l0.1,0.1l0.1,0.1c0.2,0.2,0.4,0.4,0.6,0.8c0.8,1,3.3,4,5,5.6c1.4,1.4,4.3,3.8,9.6,6.9l0.3,0.2
	c0.2,0.1,0.4,0.3,0.5,0.3c0.5,0.4,3.3,1.8,4.6,2.5c2.9,1.5,6.6,3,9.9,4.3l0.2,0.1c3.7,1.4,7.2,2.7,10.1,4.1l0.4,0.2
	c0.3,0.2,0.7,0.4,1.1,0.5c5.9-7.4,15.2-11.9,26-11.9c8.5,0,15.6,2.7,20.4,7.8c3.7,3.9,6,9.2,6.6,15.3c0.7-0.1,1.3-0.1,1.9-0.1l0.5,0
	c0.9-0.1,1.8-0.1,2.9-0.1c2.7,0,5.6,0.2,8.2,0.3c1.6,0.1,3.2,0.1,4.9,0.1c2,0,4.1-0.1,5.9-0.2c1.5-0.1,4.5-0.4,5.1-0.5l0.2,0
	c0.2,0,0.5-0.1,0.9-0.1l0.1,0c2-0.3,7.5-0.9,11.4-2.5c2.3-0.9,5.8-2.7,6.9-3.2c0.5-0.3,0.9-0.4,1-0.5l0.4-0.2
	c0.5-0.2,1.1-0.3,1.7-0.3c0.3,0,0.7,0,1,0.1c1.9,0.4,3.2,1.7,3.8,2.9C285,313.4,284.4,316.4,282.3,317.8 M382,333.3l11.4-22.1
	c0.6-1.3,1.3-2.5,1.9-3.8c0.3,1.9,0.6,4.1,1.1,7.1l2.9,18.9H382z"/>
<path class="st0" d="M613.7,367.1c-4.1,0-7.8,3.5-8.2,7.7c-0.4,4.2,2.7,7.7,7,7.7c4.1,0,7.9-3.4,8.3-7.6
	C621.1,370.5,618.1,367.1,613.7,367.1 M612.6,381.4c-3.6,0-6.2-2.9-5.9-6.6c0.3-3.5,3.5-6.5,6.9-6.5h0.1c3.5,0,6.1,2.9,5.8,6.5
	C619.2,378.4,616.1,381.4,612.6,381.4"/>
<path class="st0" d="M616.2,373c0.1-0.6-0.1-1.1-0.3-1.6c-0.5-0.8-1.2-1-2.6-1h-1.4c-0.4,0-0.5,0.1-0.6,0.5l-1.6,7.8
	c0,0.1,0,0.1,0,0.2c0,0.2,0.1,0.4,0.4,0.4h0.6c0.3,0,0.5-0.1,0.6-0.5l0.6-3h0.3l1.7,3.1c0.2,0.3,0.3,0.4,0.7,0.4h0.8
	c0.2,0,0.3-0.1,0.4-0.3c0,0,0-0.1-0.1-0.2l-1.8-3.2l0.1,0C615.2,375.2,616.1,374.3,616.2,373 M612.6,374.3h-0.5l0.5-2.4h0.4
	c1,0,1.5,0.4,1.4,1.1c0,0.4-0.2,0.8-0.6,1C613.7,374.2,613.3,374.3,612.6,374.3"/>
</svg>
